<svg width="24" height="24" viewBox="0 0 24 24" fill="none" xmlns="http://www.w3.org/2000/svg">
    <path d="M12 0C15.1787 0 18.2384 1.25992 20.4824 3.51562C22.7384 5.77271 24 8.81988 24 12.0117C23.9999 16.2114 21.7903 20.1114 18.1904 22.2832C14.5906 24.4548 10.1151 24.5744 6.39648 22.5947H6.3584C5.99989 22.4508 5.71075 22.1992 5.375 22.0312C5.0043 21.8753 4.58292 21.8506 4.2002 21.9717C3.311 22.2825 2.41033 22.535 1.48633 22.751C1.00671 22.7628 0.863281 22.4747 0.863281 22.0068C1.07928 21.0589 1.36692 20.1216 1.7041 19.2109C1.83486 18.815 1.79968 18.3946 1.5957 18.0215L1.35645 17.5547C0.467297 15.8628 0 13.9789 0 12.0723V11.999C9.77134e-05 8.81932 1.25874 5.75942 3.51465 3.51562C5.77065 1.25975 8.81881 1.25905e-07 12 0ZM6.4668 10.4756C5.6148 10.4756 4.93066 11.1598 4.93066 12.0117C4.93084 12.8515 5.61491 13.5469 6.4668 13.5469C7.30669 13.5469 8.00373 12.8515 8.00391 12.0117C8.00391 11.1598 7.3068 10.4756 6.4668 10.4756ZM12 10.4756C11.148 10.4756 10.4629 11.1598 10.4629 12.0117C10.4631 12.8515 11.1481 13.5469 12 13.5469C12.8519 13.5469 13.535 12.8515 13.5352 12.0117C13.5352 11.1598 12.852 10.4756 12 10.4756ZM17.5312 10.4756C16.6912 10.4756 15.9961 11.1598 15.9961 12.0117C15.9963 12.8515 16.6914 13.5469 17.5312 13.5469C18.3829 13.5466 19.0662 12.8514 19.0664 12.0117C19.0664 11.1599 18.383 10.4758 17.5312 10.4756Z"
          fill="white"/>
    <circle cx="20" cy="4" r="4" fill="#FF4A4A"/>
</svg>
