<svg width="24" height="24" viewBox="0 0 24 24" fill="none" xmlns="http://www.w3.org/2000/svg">
    <path d="M12 0C15.1788 0 18.2388 1.25994 20.4828 3.51582C22.7388 5.77291 24 8.81955 24 12.0114C24 16.2112 21.7908 20.111 18.1908 22.2829C14.5908 24.4548 10.1148 24.5748 6.396 22.5949H6.3588C6 22.4509 5.7108 22.1989 5.3748 22.0309C5.004 21.8749 4.5828 21.8509 4.2 21.9721C3.3108 22.2829 2.4108 22.5349 1.4868 22.7508C1.0068 22.7628 0.8628 22.4749 0.8628 22.0069C1.0788 21.0589 1.3668 20.1218 1.704 19.211C1.8348 18.8151 1.8 18.3951 1.596 18.0219L1.356 17.5551C0.4668 15.8632 0 13.9793 0 12.0726V11.9994C0 8.81955 1.2588 5.75971 3.5148 3.51582C5.7708 1.25994 8.8188 0 12 0ZM17.5308 10.4755C16.6908 10.4755 15.996 11.1594 15.996 12.0114C15.996 12.8514 16.6908 13.5473 17.5308 13.5473C18.3828 13.5473 19.0668 12.8514 19.0668 12.0114C19.0668 11.1594 18.3828 10.4755 17.5308 10.4755ZM12 10.4755C11.148 10.4755 10.4628 11.1594 10.4628 12.0114C10.4628 12.8514 11.148 13.5473 12 13.5473C12.852 13.5473 13.5348 12.8514 13.5348 12.0114C13.5348 11.1594 12.852 10.4755 12 10.4755ZM6.4668 10.4755C5.6148 10.4755 4.9308 11.1594 4.9308 12.0114C4.9308 12.8514 5.6148 13.5473 6.4668 13.5473C7.3068 13.5473 8.004 12.8514 8.004 12.0114C8.004 11.1594 7.3068 10.4755 6.4668 10.4755Z"
          fill="white"/>
</svg>
