<svg width="24" height="25" viewBox="0 0 24 25" fill="none" xmlns="http://www.w3.org/2000/svg">
    <path fill-rule="evenodd" clip-rule="evenodd"
          d="M12.0625 2.00009C8.20155 1.98458 4.61412 3.98783 2.60655 7.28047C0.598978 10.5731 0.464211 14.6747 2.25132 18.0916L2.47168 18.5211C2.6523 18.8591 2.69008 19.2552 2.57661 19.6211C2.26216 20.4563 1.99934 21.31 1.78962 22.1773C1.78962 22.6173 1.91554 22.8687 2.38774 22.8582C3.22409 22.6736 4.04774 22.4356 4.85365 22.1459C5.20075 22.0503 5.56981 22.0724 5.90297 22.2087C6.20727 22.3554 6.82638 22.7325 6.84736 22.7325C10.8907 24.8586 15.8289 24.272 19.2597 21.2582C22.6906 18.2445 23.9019 13.4291 22.3044 9.15453C20.7069 4.87999 16.6322 2.03367 12.0625 2.00009Z"
          stroke="white" stroke-width="1.5" stroke-linecap="round" stroke-linejoin="round"/>
    <path d="M6.4657 13.4C6.87991 13.4 7.2157 13.0642 7.2157 12.65C7.2157 12.2358 6.87991 11.9 6.4657 11.9C6.05148 11.9 5.7157 12.2358 5.7157 12.65C5.7157 13.0642 6.05148 13.4 6.4657 13.4Z"
          fill="white" stroke="white" stroke-width="2" stroke-linecap="round" stroke-linejoin="round"/>
    <path d="M11.7126 13.4C12.1269 13.4 12.4626 13.0642 12.4626 12.65C12.4626 12.2358 12.1269 11.9 11.7126 11.9C11.2984 11.9 10.9626 12.2358 10.9626 12.65C10.9626 13.0642 11.2984 13.4 11.7126 13.4Z"
          fill="white" stroke="white" stroke-width="2" stroke-linecap="round" stroke-linejoin="round"/>
    <path d="M16.9586 13.4C17.3728 13.4 17.7086 13.0642 17.7086 12.65C17.7086 12.2358 17.3728 11.9 16.9586 11.9C16.5444 11.9 16.2086 12.2358 16.2086 12.65C16.2086 13.0642 16.5444 13.4 16.9586 13.4Z"
          fill="white" stroke="white" stroke-width="2" stroke-linecap="round" stroke-linejoin="round"/>
    <circle cx="20" cy="4" r="4" fill="#FF4A4A"/>
</svg>
