<svg width="14" height="12" viewBox="0 0 14 12" fill="none" xmlns="http://www.w3.org/2000/svg">
    <path d="M1 6L4.25 10.5L8.75 2" stroke="white" stroke-width="1.5" stroke-linecap="round"/>
    <path d="M7.1 8.05L6.65 7.45L5.45 8.35L5.9 8.95L7.1 8.05ZM8 10.5L7.4 10.95L8.10954 11.896L8.66284 10.8509L8 10.5ZM13.1628 2.35092C13.3566 1.98484 13.217 1.53096 12.8509 1.33716C12.4848 1.14335 12.031 1.28301 11.8372 1.64908L13.1628 2.35092ZM6.5 8.5L5.9 8.95L7.4 10.95L8 10.5L8.6 10.05L7.1 8.05L6.5 8.5ZM8 10.5L8.66284 10.8509L13.1628 2.35092L12.5 2L11.8372 1.64908L7.33716 10.1491L8 10.5Z"
          fill="white"/>
</svg>
