<svg width="24" height="24" viewBox="0 0 24 24" fill="none" xmlns="http://www.w3.org/2000/svg">
<path fill-rule="evenodd" clip-rule="evenodd" d="M12.0625 1.00009C8.20155 0.984578 4.61412 2.98783 2.60655 6.28047C0.598978 9.57311 0.464211 13.6747 2.25132 17.0916L2.47168 17.5211C2.6523 17.8591 2.69008 18.2552 2.57661 18.6211C2.26216 19.4563 1.99934 20.31 1.78962 21.1773C1.78962 21.6173 1.91554 21.8687 2.38774 21.8582C3.22409 21.6736 4.04774 21.4356 4.85365 21.1459C5.20075 21.0503 5.56981 21.0724 5.90297 21.2087C6.20727 21.3554 6.82638 21.7325 6.84736 21.7325C10.8907 23.8586 15.8289 23.272 19.2597 20.2582C22.6906 17.2445 23.9019 12.4291 22.3044 8.15453C20.7069 3.87999 16.6322 1.03367 12.0625 1.00009Z" stroke="white" stroke-width="1.5" stroke-linecap="round" stroke-linejoin="round"/>
<path d="M6.46571 12.4001C6.87992 12.4001 7.21571 12.0643 7.21571 11.6501C7.21571 11.2358 6.87992 10.9001 6.46571 10.9001C6.05149 10.9001 5.71571 11.2358 5.71571 11.6501C5.71571 12.0643 6.05149 12.4001 6.46571 12.4001Z" fill="white" stroke="white" stroke-width="2" stroke-linecap="round" stroke-linejoin="round"/>
<path d="M11.7127 12.4001C12.1269 12.4001 12.4627 12.0643 12.4627 11.6501C12.4627 11.2358 12.1269 10.9001 11.7127 10.9001C11.2985 10.9001 10.9627 11.2358 10.9627 11.6501C10.9627 12.0643 11.2985 12.4001 11.7127 12.4001Z" fill="white" stroke="white" stroke-width="2" stroke-linecap="round" stroke-linejoin="round"/>
<path d="M16.9586 12.4001C17.3729 12.4001 17.7086 12.0643 17.7086 11.6501C17.7086 11.2358 17.3729 10.9001 16.9586 10.9001C16.5444 10.9001 16.2086 11.2358 16.2086 11.6501C16.2086 12.0643 16.5444 12.4001 16.9586 12.4001Z" fill="white" stroke="white" stroke-width="2" stroke-linecap="round" stroke-linejoin="round"/>
</svg>
