<svg width="40" height="40" viewBox="0 0 40 40" fill="none" xmlns="http://www.w3.org/2000/svg">
    <rect width="40" height="40" rx="20" fill="#E2E2E2"/>
    <path fill-rule="evenodd" clip-rule="evenodd"
          d="M15.4551 13.1819C15.4551 12.5791 15.6946 12.0011 16.1208 11.5748C16.547 11.1486 17.1251 10.9092 17.7278 10.9092H26.8188C27.4215 10.9092 27.9996 11.1486 28.4258 11.5748C28.852 12.0011 29.0915 12.5791 29.0915 13.1819V22.2728C29.0915 22.8756 28.852 23.4537 28.4258 23.8799C27.9996 24.3061 27.4215 24.5455 26.8188 24.5455H17.7278C17.1251 24.5455 16.547 24.3061 16.1208 23.8799C15.6946 23.4537 15.4551 22.8756 15.4551 22.2728V13.1819ZM17.7278 12.0455C17.4265 12.0455 17.1374 12.1653 16.9243 12.3784C16.7112 12.5915 16.5915 12.8805 16.5915 13.1819V22.2728C16.5915 22.5742 16.7112 22.8632 16.9243 23.0763C17.1374 23.2895 17.4265 23.4092 17.7278 23.4092H26.8188C27.1201 23.4092 27.4092 23.2895 27.6223 23.0763C27.8354 22.8632 27.9551 22.5742 27.9551 22.2728V13.1819C27.9551 12.8805 27.8354 12.5915 27.6223 12.3784C27.4092 12.1653 27.1201 12.0455 26.8188 12.0455H17.7278ZM13.1824 16.591C12.881 16.591 12.592 16.7107 12.3789 16.9238C12.1658 17.1369 12.046 17.426 12.046 17.7274V26.8183C12.046 27.1197 12.1658 27.4087 12.3789 27.6218C12.592 27.8349 12.881 27.9546 13.1824 27.9546H22.2733C22.5747 27.9546 22.8637 27.8349 23.0768 27.6218C23.2899 27.4087 23.4097 27.1197 23.4097 26.8183V25.6819H24.546V26.8183C24.546 27.421 24.3066 27.9991 23.8804 28.4253C23.4541 28.8515 22.8761 29.091 22.2733 29.091H13.1824C12.5796 29.091 12.0016 28.8515 11.5753 28.4253C11.1491 27.9991 10.9097 27.421 10.9097 26.8183V17.7274C10.9097 17.1246 11.1491 16.5465 11.5753 16.1203C12.0016 15.6941 12.5796 15.4546 13.1824 15.4546H14.3188V16.591H13.1824Z"
          fill="black"/>
</svg>
