<svg width="24" height="24" viewBox="0 0 24 24" fill="none" xmlns="http://www.w3.org/2000/svg">
    <path d="M18.15 9.14471L17.85 18.225C17.8245 19.0026 17.4969 19.7397 16.9368 20.2798C16.3766 20.8199 15.6281 21.1205 14.85 21.1177H9.15002C8.37244 21.1205 7.62434 20.8204 7.0643 20.2809C6.50427 19.7415 6.17634 19.0051 6.15002 18.228L5.85002 9.14471C5.84346 8.9458 5.91618 8.75243 6.05219 8.60713C6.1882 8.46184 6.37636 8.37653 6.57527 8.36996C6.77418 8.3634 6.96756 8.43612 7.11285 8.57213C7.25814 8.70814 7.34346 8.8963 7.35002 9.09521L7.65002 18.1777C7.66496 18.5654 7.82956 18.9323 8.10927 19.2012C8.38897 19.4702 8.762 19.6203 9.15002 19.62H14.85C15.2385 19.6202 15.612 19.4697 15.8918 19.2002C16.1716 18.9306 16.3358 18.563 16.35 18.1747L16.65 9.09521C16.6566 8.8963 16.7419 8.70814 16.8872 8.57213C17.0325 8.43612 17.2259 8.3634 17.4248 8.36996C17.6237 8.37653 17.8118 8.46184 17.9479 8.60713C18.0839 8.75243 18.1566 8.9458 18.15 9.14471ZM19.1423 6.12296C19.1423 6.32187 19.0633 6.51264 18.9226 6.65329C18.7819 6.79395 18.5912 6.87296 18.3923 6.87296H5.60852C5.40961 6.87296 5.21884 6.79395 5.07819 6.65329C4.93754 6.51264 4.85852 6.32187 4.85852 6.12296C4.85852 5.92405 4.93754 5.73328 5.07819 5.59263C5.21884 5.45198 5.40961 5.37296 5.60852 5.37296H7.93352C8.17116 5.3736 8.40053 5.28581 8.57701 5.12666C8.75348 4.96751 8.86443 4.7484 8.88827 4.51196C8.94362 3.95733 9.20347 3.44316 9.61719 3.06964C10.0309 2.69613 10.5689 2.49001 11.1263 2.49146H12.8738C13.4312 2.49001 13.9691 2.69613 14.3828 3.06964C14.7966 3.44316 15.0564 3.95733 15.1118 4.51196C15.1356 4.7484 15.2466 4.96751 15.423 5.12666C15.5995 5.28581 15.8289 5.3736 16.0665 5.37296H18.3915C18.5904 5.37296 18.7812 5.45198 18.9219 5.59263C19.0625 5.73328 19.1415 5.92405 19.1415 6.12296H19.1423ZM10.1903 5.37296H13.8113C13.7127 5.14777 13.6483 4.90915 13.62 4.66496C13.6014 4.48009 13.5149 4.3087 13.3772 4.184C13.2394 4.05929 13.0603 3.99015 12.8745 3.98996H11.127C10.9412 3.99015 10.7621 4.05929 10.6244 4.184C10.4866 4.3087 10.4001 4.48009 10.3815 4.66496C10.353 4.90919 10.2891 5.14781 10.1903 5.37296ZM10.9455 16.7362V10.35C10.9455 10.1511 10.8665 9.96029 10.7259 9.81963C10.5852 9.67898 10.3944 9.59996 10.1955 9.59996C9.99661 9.59996 9.80584 9.67898 9.66519 9.81963C9.52454 9.96029 9.44552 10.1511 9.44552 10.35V16.7392C9.44552 16.9381 9.52454 17.1289 9.66519 17.2695C9.80584 17.4102 9.99661 17.4892 10.1955 17.4892C10.3944 17.4892 10.5852 17.4102 10.7259 17.2695C10.8665 17.1289 10.9455 16.9381 10.9455 16.7392V16.7362ZM14.556 16.7362V10.35C14.556 10.1511 14.477 9.96029 14.3363 9.81963C14.1957 9.67898 14.0049 9.59996 13.806 9.59996C13.6071 9.59996 13.4163 9.67898 13.2757 9.81963C13.135 9.96029 13.056 10.1511 13.056 10.35V16.7392C13.056 16.9381 13.135 17.1289 13.2757 17.2695C13.4163 17.4102 13.6071 17.4892 13.806 17.4892C14.0049 17.4892 14.1957 17.4102 14.3363 17.2695C14.477 17.1289 14.556 16.9381 14.556 16.7392V16.7362Z"
          fill="black"/>
</svg>
