<svg width="24" height="24" viewBox="0 0 24 24" fill="none" xmlns="http://www.w3.org/2000/svg">
    <path d="M20.4852 3.51467C21.6568 4.68624 21.6568 6.58573 20.4852 7.75731L9.40554 18.837C8.92494 19.3176 8.32277 19.6585 7.66339 19.8234L4.2269 20.6825C3.67761 20.8198 3.18007 20.3223 3.31739 19.773L4.17651 16.3365C4.34135 15.6771 4.6823 15.075 5.1629 14.5944L16.2426 3.51467C17.4142 2.34309 19.3137 2.34309 20.4852 3.51467ZM15.1818 6.69649L6.22356 15.655C5.9352 15.9434 5.73063 16.3047 5.63173 16.7003L5.07577 18.9241L7.29959 18.3682C7.69521 18.2693 8.05652 18.0647 8.34488 17.7763L17.3028 8.81749L15.1818 6.69649ZM17.3032 4.57533L16.2423 5.63599L18.3633 7.75699L19.4246 6.69665C20.0104 6.11086 20.0104 5.16111 19.4246 4.57533C18.8388 3.98954 17.889 3.98954 17.3032 4.57533Z"
          fill="white"/>
</svg>
