<svg width="22" height="22" viewBox="0 0 22 22" fill="none" xmlns="http://www.w3.org/2000/svg">
<path d="M11 0C17.0751 0 22 4.92487 22 11C22 17.0751 17.0751 22 11 22C4.92487 22 0 17.0751 0 11C0 4.92487 4.92487 0 11 0ZM11 1.83333C5.93739 1.83333 1.83333 5.93739 1.83333 11C1.83333 16.0626 5.93739 20.1667 11 20.1667C16.0626 20.1667 20.1667 16.0626 20.1667 11C20.1667 5.93739 16.0626 1.83333 11 1.83333ZM11 14.6667C11.7594 14.6667 12.375 15.2823 12.375 16.0417C12.375 16.8011 11.7594 17.4167 11 17.4167C10.2406 17.4167 9.625 16.8011 9.625 16.0417C9.625 15.2823 10.2406 14.6667 11 14.6667ZM11 4.58333C11.45 4.58333 11.8243 4.9076 11.9019 5.33523L11.9167 5.5V11.9167C11.9167 12.4229 11.5063 12.8333 11 12.8333C10.55 12.8333 10.1757 12.5091 10.0981 12.0814L10.0833 11.9167V5.5C10.0833 4.99374 10.4937 4.58333 11 4.58333Z" fill="#FF4A4A"/>
</svg>
