<svg width="17" height="20" viewBox="0 0 17 20" fill="none" xmlns="http://www.w3.org/2000/svg">
    <path d="M5.79961 10.1335V16.816C5.79961 17.8686 6.85557 18.5939 7.83808 18.216L10.6881 17.1198C11.2674 16.897 11.6496 16.3405 11.6496 15.7198V10.0931C11.6496 9.74217 11.7726 9.40237 11.9973 9.1328L15.8019 4.5672C16.0266 4.29763 16.1496 3.95783 16.1496 3.60693V2.5C16.1496 1.67157 15.478 1 14.6496 1H2.34961C1.52118 1 0.849609 1.67157 0.849609 2.5V3.56652C0.849609 3.94181 0.990287 4.30347 1.24388 4.58011L5.40534 9.11989C5.65893 9.39653 5.79961 9.75819 5.79961 10.1335Z"
          stroke="#666666" stroke-width="1.5" stroke-linejoin="round"/>
</svg>
