<svg width="24" height="24" viewBox="0 0 24 24" fill="none" xmlns="http://www.w3.org/2000/svg">
    <path d="M9.79998 12.1335V18.816C9.79998 19.8686 10.8559 20.5939 11.8384 20.216L14.6884 19.1198C15.2677 18.897 15.65 18.3405 15.65 17.7198V12.0931C15.65 11.7422 15.773 11.4024 15.9976 11.1328L19.8023 6.5672C20.027 6.29763 20.15 5.95783 20.15 5.60693V4.5C20.15 3.67157 19.4784 3 18.65 3H6.34998C5.52155 3 4.84998 3.67157 4.84998 4.5V5.56652C4.84998 5.94181 4.99065 6.30347 5.24424 6.58011L9.40571 11.1199C9.6593 11.3965 9.79998 11.7582 9.79998 12.1335Z"
          stroke="black" stroke-width="1.5" stroke-linejoin="round"/>
</svg>
