<svg width="24" height="24" viewBox="0 0 24 24" fill="none" xmlns="http://www.w3.org/2000/svg">
<path d="M8.30439 23.0586C8.48795 23.1848 8.70346 23.25 8.92104 23.25C9.05219 23.25 9.18471 23.2259 9.31018 23.1777L15.4682 20.8188C15.8899 20.6579 16.1678 20.2532 16.1678 19.8024V11.9312L21.5043 6.23818C21.6928 6.0369 21.7984 5.77039 21.7984 5.49395V1.8387C21.7984 1.23766 21.3108 0.75 20.7097 0.75H3.29036C2.68932 0.75 2.20166 1.23766 2.20166 1.8387V5.49395C2.20166 5.77039 2.30727 6.0369 2.49582 6.23818L7.83234 11.9312V22.1613C7.83234 22.5199 8.0088 22.8552 8.30439 23.0586ZM4.37906 5.06374V2.9274H19.621V5.06374L14.2845 10.7568C14.096 10.958 13.9904 11.2246 13.9904 11.501V19.0539L10.0097 20.5785V11.501C10.0097 11.2246 9.90412 10.958 9.71557 10.7568L4.37906 5.06374Z" fill="black"/>
</svg>
