<svg width="20" height="23" viewBox="0 0 20 23" fill="none" xmlns="http://www.w3.org/2000/svg">
    <path d="M6.10273 22.3086C6.28629 22.4348 6.5018 22.5 6.71938 22.5C6.85053 22.5 6.98305 22.4759 7.10852 22.4277L13.2665 20.0688C13.6882 19.9079 13.9661 19.5032 13.9661 19.0524V11.1812L19.3026 5.48818C19.4912 5.2869 19.5968 5.02039 19.5968 4.74395V1.0887C19.5968 0.487658 19.1091 0 18.5081 0H1.0887C0.487658 0 0 0.487658 0 1.0887V4.74395C0 5.02039 0.105607 5.2869 0.294157 5.48818L5.63068 11.1812V21.4113C5.63068 21.7699 5.80714 22.1052 6.10273 22.3086ZM2.1774 4.31374V2.1774H17.4194V4.31374L12.0829 10.0068C11.8943 10.208 11.7887 10.4746 11.7887 10.751V18.3039L7.80807 19.8285V10.751C7.80807 10.4746 7.70246 10.208 7.51391 10.0068L2.1774 4.31374Z"
          fill="#666666"/>
</svg>
