<svg width="24" height="24" viewBox="0 0 24 24" fill="none" xmlns="http://www.w3.org/2000/svg">
<path d="M14.9307 1C17.114 1.00019 18.8838 2.73787 18.8838 4.88086C18.8836 6.21539 18.1967 7.39177 17.1514 8.08984C17.0042 8.18813 16.9074 8.3494 16.9072 8.52637C16.9072 8.73504 17.0401 8.91992 17.2324 9.00098C19.3639 9.89973 20.8602 12.0083 20.8604 14.4668V19.1787C20.8604 19.731 20.4126 20.1787 19.8604 20.1787H15V16.5459C14.9998 14.3277 13.6864 12.4165 11.7949 11.5469C11.599 11.4567 11.4648 11.2655 11.4648 11.0498C11.4649 10.8684 11.5611 10.7021 11.708 10.5957C12.6269 9.93035 13.2236 8.86105 13.2236 7.6543C13.2236 6.16701 12.3179 4.88778 11.0186 4.31738C11.2967 2.4413 12.9422 1 14.9307 1Z" fill="white"/>
<mask id="path-2-inside-1_1304_2120" fill="white">
<path d="M9.53516 4C11.6042 4.0002 13.2812 5.64685 13.2812 7.67773C13.2812 8.8922 12.681 9.96845 11.7562 10.6379C11.6084 10.745 11.5117 10.9121 11.5117 11.0946C11.5117 11.3117 11.6468 11.5042 11.844 11.5949C13.7475 12.47 15.0692 14.3927 15.0693 16.625V22.1201C15.0693 22.6724 14.6216 23.1201 14.0693 23.1201H5C4.44772 23.1201 4 22.6724 4 22.1201V16.625C4.00015 14.393 5.32168 12.4704 7.22481 11.5951C7.42237 11.5042 7.55762 11.3115 7.55762 11.094C7.55762 10.9113 7.46082 10.7439 7.3128 10.6367C6.38841 9.96723 5.78818 8.89181 5.78809 7.67773C5.78809 5.64673 7.46591 4 9.53516 4Z"/>
</mask>
<path d="M9.53516 4L9.53522 3.3H9.53516V4ZM13.2812 7.67773L13.9812 7.67779V7.67773H13.2812ZM15.0693 16.625H15.7693V16.625L15.0693 16.625ZM4 16.625L3.3 16.625V16.625H4ZM5.78809 7.67773H5.08809L5.08809 7.67779L5.78809 7.67773ZM7.3128 10.6367L7.72338 10.0697L7.3128 10.6367ZM11.7562 10.6379L12.1667 11.205L11.7562 10.6379ZM9.53516 4L9.53509 4.7C11.2298 4.70016 12.5813 6.04556 12.5813 7.67773H13.2812H13.9812C13.9812 5.24815 11.9786 3.30023 9.53522 3.3L9.53516 4ZM13.2812 7.67773L12.5813 7.67768C12.5812 8.65476 12.0995 9.5253 11.3458 10.0709L11.7562 10.6379L12.1667 11.205C13.2626 10.4116 13.9811 9.12965 13.9812 7.67779L13.2812 7.67773ZM11.844 11.5949L11.5516 12.2309C13.216 12.9961 14.3692 14.6763 14.3693 16.625L15.0693 16.625L15.7693 16.625C15.7692 14.1091 14.279 11.9439 12.1364 10.9588L11.844 11.5949ZM15.0693 16.625H14.3693V22.1201H15.0693H15.7693V16.625H15.0693ZM14.0693 23.1201V22.4201H5V23.1201V23.8201H14.0693V23.1201ZM4 22.1201H4.7V16.625H4H3.3V22.1201H4ZM4 16.625L4.7 16.625C4.70013 14.6765 5.85317 12.9964 7.5173 12.2311L7.22481 11.5951L6.93233 10.9591C4.7902 11.9443 3.30017 14.1094 3.3 16.625L4 16.625ZM7.3128 10.6367L7.72338 10.0697C6.96982 9.524 6.48816 8.65413 6.48809 7.67768L5.78809 7.67773L5.08809 7.67779C5.0882 9.12948 5.80701 10.4105 6.90221 11.2036L7.3128 10.6367ZM5.78809 7.67773H6.48809C6.48809 6.0456 7.84012 4.7 9.53516 4.7V4V3.3C7.0917 3.3 5.08809 5.24786 5.08809 7.67773H5.78809ZM7.55762 11.094H8.25762C8.25762 10.6579 8.02842 10.2907 7.72338 10.0697L7.3128 10.6367L6.90221 11.2036C6.89322 11.1971 6.85762 11.1646 6.85762 11.094H7.55762ZM5 23.1201V22.4201C4.83431 22.4201 4.7 22.2858 4.7 22.1201H4H3.3C3.3 23.059 4.06112 23.8201 5 23.8201V23.1201ZM15.0693 22.1201H14.3693C14.3693 22.2858 14.235 22.4201 14.0693 22.4201V23.1201V23.8201C15.0082 23.8201 15.7693 23.059 15.7693 22.1201H15.0693ZM7.22481 11.5951L7.5173 12.2311C7.93903 12.0371 8.25762 11.6105 8.25762 11.094H7.55762H6.85762C6.85762 11.0124 6.90571 10.9714 6.93233 10.9591L7.22481 11.5951ZM11.5117 11.0946H10.8117C10.8117 11.6107 11.1301 12.0371 11.5516 12.2309L11.844 11.5949L12.1364 10.9588C12.1634 10.9713 12.2117 11.0127 12.2117 11.0946H11.5117ZM11.7562 10.6379L11.3458 10.0709C11.0408 10.2916 10.8117 10.6587 10.8117 11.0946H11.5117H12.2117C12.2117 11.1655 12.1759 11.1983 12.1667 11.205L11.7562 10.6379Z" fill="white" mask="url(#path-2-inside-1_1304_2120)"/>
</svg>
