<svg width="24" height="24" viewBox="0 0 24 24" fill="none" xmlns="http://www.w3.org/2000/svg">
<path d="M16.3297 6.72852C17.5633 7.12554 18.4397 8.24134 18.5492 9.55417M11.7233 22.8294C9.20993 21.2709 6.87181 19.4366 4.75076 17.3594C3.25956 15.8634 2.12432 14.0397 1.43201 12.028C0.186166 8.12536 1.64139 3.65763 5.71393 2.33544C7.85429 1.64117 10.1919 2.03798 11.9955 3.40172C13.7998 2.03964 16.1365 1.64297 18.277 2.33544C22.3496 3.65763 23.8153 8.12536 22.5694 12.028C21.8771 14.0397 20.7419 15.8634 19.2507 17.3594C17.1296 19.4366 14.7915 21.2709 12.2781 22.8294L12.0059 23L11.7233 22.8294Z" stroke="white" stroke-width="1.5" stroke-linecap="round" stroke-linejoin="round"/>
</svg>
