<svg width="22" height="21" viewBox="0 0 22 21" fill="none" xmlns="http://www.w3.org/2000/svg">
    <path d="M6.90795 0.000170942C7.60094 0.0213471 8.27193 0.142924 8.92202 0.365078H8.98692C9.03092 0.386078 9.06392 0.409288 9.08592 0.430288C9.32902 0.50876 9.55892 0.59718 9.77892 0.718757L10.1969 0.906648C10.3619 0.995068 10.5599 1.15975 10.6699 1.22717C10.7799 1.29238 10.9009 1.3598 10.9999 1.43606C12.222 0.497708 13.7059 -0.010705 15.2349 0.000170942C15.929 0.000170942 16.6219 0.0987142 17.2808 0.320868C21.3409 1.64716 22.8039 6.1234 21.5818 10.036C20.8888 12.0354 19.7558 13.8601 18.2719 15.3511C16.1479 17.4179 13.817 19.2526 11.3079 20.8331L11.0329 21L10.7469 20.8221C8.22903 19.2526 5.88496 17.4179 3.74108 15.34C2.26709 13.8491 1.13301 12.0354 0.429014 10.036C-0.813973 6.1234 0.649012 1.64716 4.75307 0.297658C5.07207 0.187134 5.40096 0.109767 5.73096 0.0666621H5.86296C6.17205 0.0213471 6.47895 0.000170942 6.78695 0.000170942H6.90795ZM16.7088 3.49292C16.2578 3.33708 15.7629 3.58134 15.5979 4.04554C15.4439 4.50975 15.6859 5.01816 16.1478 5.18284C16.8529 5.4481 17.3248 6.14551 17.3248 6.91807V6.95234C17.3039 7.20544 17.3798 7.4497 17.5338 7.63759C17.6878 7.82548 17.9188 7.9349 18.1608 7.95811C18.6118 7.94595 18.9968 7.58233 19.0298 7.11702V6.98549C19.0628 5.43705 18.1289 4.03449 16.7088 3.49292Z"
          fill="white"/>
</svg>
