<svg width="24" height="23" viewBox="0 0 24 23" fill="none" xmlns="http://www.w3.org/2000/svg">
    <path d="M16.3297 5.72852C17.5633 6.12554 18.4397 7.24134 18.5492 8.55417M11.7233 21.8294C9.20993 20.2709 6.87181 18.4366 4.75076 16.3594C3.25956 14.8634 2.12432 13.0397 1.43201 11.028C0.186166 7.12536 1.64139 2.65763 5.71393 1.33544C7.85429 0.641174 10.1919 1.03798 11.9955 2.40172C13.7998 1.03964 16.1365 0.642974 18.277 1.33544C22.3496 2.65763 23.8153 7.12536 22.5694 11.028C21.8771 13.0397 20.7419 14.8634 19.2507 16.3594C17.1296 18.4366 14.7915 20.2709 12.2781 21.8294L12.0059 22L11.7233 21.8294Z"
          stroke="white" stroke-width="1.5" stroke-linecap="round" stroke-linejoin="round"/>
</svg>
