<svg width="24" height="24" viewBox="0 0 24 24" fill="none" xmlns="http://www.w3.org/2000/svg">
    <path d="M12 1C8.67619 1 6 3.67619 6 7V8C5.47778 8 4.94539 8.19133 4.56836 8.56836C4.19133 8.94539 4 9.47778 4 10V20C4 20.5222 4.19133 21.0546 4.56836 21.4316C4.94539 21.8087 5.47778 22 6 22H18C18.5222 22 19.0546 21.8087 19.4316 21.4316C19.8087 21.0546 20 20.5222 20 20V10C20 9.47778 19.8087 8.94539 19.4316 8.56836C19.0546 8.19133 18.5222 8 18 8V7C18 3.67619 15.3238 1 12 1ZM12 3C14.2762 3 16 4.72381 16 7V8H8V7C8 4.72381 9.72381 3 12 3ZM6 10H18V20H6V10ZM12 13C10.9 13 10 13.9 10 15C10 16.1 10.9 17 12 17C13.1 17 14 16.1 14 15C14 13.9 13.1 13 12 13Z"
          fill="white"/>
</svg>
