<svg width="24" height="24" viewBox="0 0 24 24" fill="none" xmlns="http://www.w3.org/2000/svg">
    <path d="M13.9971 20.2373C14.375 20.276 14.6699 20.5953 14.6699 20.9834C14.6697 21.3714 14.3749 21.6909 13.9971 21.7295L13.9199 21.7334H10.5303C10.1162 21.7334 9.78046 21.3975 9.78027 20.9834C9.78027 20.5692 10.1161 20.2334 10.5303 20.2334H13.9199L13.9971 20.2373ZM12.2354 2.00879C15.8172 2.19063 18.6658 5.15235 18.666 8.7793V17.5215H20.0215L20.0977 17.5254C20.4759 17.5637 20.7715 17.8831 20.7715 18.2715C20.7713 18.6597 20.4759 18.9793 20.0977 19.0176L20.0215 19.0215H3.75C3.33605 19.0213 3.00016 18.6854 3 18.2715C3 17.8574 3.33595 17.5217 3.75 17.5215H5.10645V8.7793C5.10664 5.03528 8.14173 2.0002 11.8857 2L12.2354 2.00879ZM11.8857 3.5C8.97015 3.5002 6.60664 5.86371 6.60645 8.7793V17.4492H17.166V8.7793C17.1658 5.86364 14.8014 3.50009 11.8857 3.5Z"
          fill="white"/>
</svg>
