<svg width="18" height="18" viewBox="0 0 18 18" fill="none" xmlns="http://www.w3.org/2000/svg">
    <path d="M11.796 3C13.836 3 15 4.152 15 6.198V11.802C15 13.836 13.842 15 11.802 15H6.198C4.152 15 3 13.836 3 11.802V6.198C3 4.152 4.152 3 6.198 3H11.796ZM8.994 6.306C8.718 6.306 8.496 6.528 8.496 6.804V8.496H6.798C6.666 8.496 6.54 8.55 6.444 8.64C6.354 8.736 6.3 8.8614 6.3 8.994C6.3 9.27 6.522 9.492 6.798 9.498H8.496V11.196C8.496 11.472 8.718 11.694 8.994 11.694C9.27 11.694 9.492 11.472 9.492 11.196V9.498H11.196C11.472 9.492 11.694 9.27 11.694 8.994C11.694 8.718 11.472 8.496 11.196 8.496H9.492V6.804C9.492 6.528 9.27 6.306 8.994 6.306Z"
          fill="#333333"/>
</svg>
