<svg width="24" height="24" viewBox="0 0 24 24" fill="none" xmlns="http://www.w3.org/2000/svg">
    <path d="M17.592 0C21.672 0 24 2.304 24 6.396V17.604C24 21.672 21.684 24 17.604 24H6.396C2.304 24 0 21.672 0 17.604V6.396C0 2.304 2.304 0 6.396 0H17.592ZM11.988 6.612C11.436 6.612 10.992 7.056 10.992 7.608V10.992H7.596C7.332 10.992 7.08 11.1 6.888 11.28C6.708 11.472 6.6 11.7228 6.6 11.988C6.6 12.54 7.044 12.984 7.596 12.996H10.992V16.392C10.992 16.944 11.436 17.388 11.988 17.388C12.54 17.388 12.984 16.944 12.984 16.392V12.996H16.392C16.944 12.984 17.388 12.54 17.388 11.988C17.388 11.436 16.944 10.992 16.392 10.992H12.984V7.608C12.984 7.056 12.54 6.612 11.988 6.612Z"
          fill="white"/>
</svg>
