<svg width="18" height="18" viewBox="0 0 18 18" fill="none" xmlns="http://www.w3.org/2000/svg">
<g clip-path="url(#clip0_1332_4450)">
<path d="M10.5063 17.9999C10.4775 17.9999 10.4483 17.9992 10.4191 17.9978C9.63517 17.9619 8.98583 17.4521 8.76505 16.6991L7.19743 11.3543C7.11903 11.0871 6.91266 10.8807 6.64583 10.8027L1.30067 9.2347C0.547626 9.01392 0.0378605 8.36459 0.00200116 7.5806C-0.0338582 6.79662 0.414736 6.10369 1.14458 5.81506L15.521 0.13029C16.2027 -0.139359 16.948 0.0153287 17.4662 0.533532C17.9844 1.05173 18.1391 1.79705 17.8695 2.47873L12.1847 16.8552C11.907 17.5579 11.2541 17.9999 10.5063 17.9999ZM15.7042 0.593297L15.8874 1.05666L1.51091 6.74142C1.11259 6.89892 0.984618 7.2547 0.997275 7.53525C1.00993 7.8158 1.17024 8.15822 1.58087 8.27881L6.92567 9.84642C7.51981 10.0208 7.9786 10.4796 8.15298 11.0737L9.72059 16.4185C9.84118 16.8295 10.1836 16.9895 10.4641 17.0021C10.745 17.0148 11.1005 16.8868 11.258 16.4885L16.9427 2.11205C17.0658 1.80091 16.9979 1.47396 16.7613 1.23771C16.5247 1.00111 16.1981 0.933258 15.887 1.05631L15.7042 0.593297Z" fill="white"/>
</g>
<defs>
<clipPath id="clip0_1332_4450">
<rect width="18" height="18" fill="white"/>
</clipPath>
</defs>
</svg>
