<svg width="23" height="22" viewBox="0 0 23 22" fill="none" xmlns="http://www.w3.org/2000/svg">
    <path d="M22 11L1 1L2.5 9.5L16 11L2.5 13L1 21.5L22 11Z" fill="black"/>
    <path d="M1 1L1.21497 0.54857C1.04596 0.468091 0.846157 0.488754 0.697198 0.602117C0.548239 0.71548 0.475077 0.902551 0.507608 1.08689L1 1ZM22 11L22.2236 11.4472C22.3945 11.3617 22.5018 11.1863 22.5 10.9952C22.4981 10.8041 22.3875 10.6307 22.215 10.5486L22 11ZM1 21.5L0.507608 21.4131C0.474777 21.5992 0.549609 21.7878 0.701037 21.9008C0.852466 22.0137 1.05463 22.0317 1.22361 21.9472L1 21.5ZM2.5 9.5L2.00761 9.58689C2.04618 9.80545 2.2242 9.97243 2.44478 9.99694L2.5 9.5ZM16 11L16.0733 11.4946L16.0552 10.5031L16 11ZM2.5 13L2.42673 12.5054L2.07024 12.5582L2.00761 12.9131L2.5 13ZM1 1L0.785033 1.45143L21.785 11.4514L22 11L22.215 10.5486L1.21497 0.54857L1 1ZM22 11L21.7764 10.5528L0.776393 21.0528L1 21.5L1.22361 21.9472L22.2236 11.4472L22 11ZM2.5 9.5L2.99239 9.41311L1.49239 0.913107L1 1L0.507608 1.08689L2.00761 9.58689L2.5 9.5ZM16 11L16.0552 10.5031L2.55522 9.00306L2.5 9.5L2.44478 9.99694L15.9448 11.4969L16 11ZM1 21.5L1.49239 21.5869L2.99239 13.0869L2.5 13L2.00761 12.9131L0.507608 21.4131L1 21.5ZM2.5 13L2.57327 13.4946L16.0733 11.4946L16 11L15.9267 10.5054L2.42673 12.5054L2.5 13Z"
          fill="black"/>
</svg>
