<svg width="24" height="24" viewBox="0 0 24 24" fill="none" xmlns="http://www.w3.org/2000/svg">
<path fill-rule="evenodd" clip-rule="evenodd" d="M22.6799 7.1181L21.91 5.88191C21.2587 4.8359 19.8153 4.47505 18.6834 5.07524C18.1446 5.36895 17.5016 5.45229 16.8963 5.30686C16.2911 5.16143 15.7731 4.79918 15.4568 4.3C15.2533 3.98271 15.1439 3.62132 15.1398 3.25238C15.1582 2.66087 14.917 2.08767 14.4712 1.66336C14.0255 1.23905 13.4131 0.999756 12.7736 1H11.2226C10.5961 1 9.9954 1.23101 9.55345 1.64193C9.1115 2.05285 8.86473 2.60979 8.86774 3.18952C8.84918 4.38647 7.79522 5.34774 6.50157 5.34762C6.10286 5.34379 5.71232 5.2426 5.36943 5.05429C4.23749 4.4541 2.79413 4.81495 2.14283 5.86095L1.31637 7.1181C0.665856 8.16279 1.05051 9.49755 2.17679 10.1038C2.9089 10.4949 3.35989 11.2178 3.35989 12C3.35989 12.7822 2.9089 13.5051 2.17679 13.8962C1.05194 14.4984 0.666867 15.8299 1.31637 16.8714L2.09754 18.1181C2.4027 18.6276 2.91471 19.0036 3.52027 19.1629C4.12582 19.3221 4.775 19.2515 5.32414 18.9667C5.86399 18.6752 6.50729 18.5953 7.11106 18.7448C7.71484 18.8943 8.22906 19.2608 8.53942 19.7629C8.74293 20.0801 8.85228 20.4415 8.85642 20.8105C8.85642 22.0197 9.91579 23 11.2226 23H12.7736C14.076 23 15.1336 22.0261 15.1398 20.821C15.1368 20.2394 15.3851 19.6809 15.8295 19.2696C16.2739 18.8584 16.8775 18.6286 17.506 18.6314C17.9037 18.6413 18.2927 18.7421 18.6381 18.9248C19.7671 19.5267 21.2095 19.1708 21.8647 18.1286L22.6799 16.8714C22.9954 16.3703 23.082 15.7734 22.9205 15.213C22.759 14.6526 22.3627 14.1749 21.8194 13.8857C21.2761 13.5965 20.8799 13.1188 20.7184 12.5584C20.5569 11.998 20.6435 11.4011 20.959 10.9C21.1642 10.5685 21.4612 10.2937 21.8194 10.1038C22.939 9.49788 23.3227 8.17092 22.6799 7.12857V7.1181Z" stroke="white" stroke-width="2" stroke-linecap="round" stroke-linejoin="round"/>
<path d="M12.0038 15.0169C13.8044 15.0169 15.2641 13.6662 15.2641 12C15.2641 10.3337 13.8044 8.983 12.0038 8.983C10.2031 8.983 8.74338 10.3337 8.74338 12C8.74338 13.6662 10.2031 15.0169 12.0038 15.0169Z" stroke="white" stroke-width="2" stroke-linecap="round" stroke-linejoin="round"/>
</svg>
