<svg width="40" height="40" viewBox="0 0 40 40" fill="none" xmlns="http://www.w3.org/2000/svg">
    <path d="M20 40C31.0457 40 40 31.0457 40 20C40 8.95431 31.0457 0 20 0C8.95431 0 0 8.95431 0 20C0 31.0457 8.95431 40 20 40Z"
          fill="url(#paint0_linear_1593_3411)"/>
    <path d="M29.9811 11.7269C30.1591 10.5762 29.0651 9.66793 28.0419 10.1171L7.66423 19.064C6.93053 19.3861 6.98421 20.4976 7.74516 20.7399L11.9475 22.0781C12.7496 22.3336 13.6181 22.2014 14.3185 21.7176L23.7931 15.1719C24.0788 14.9744 24.3902 15.3807 24.1461 15.6323L17.3261 22.6637C16.6645 23.3459 16.7958 24.5017 17.5916 25.0007L25.2273 29.789C26.0838 30.326 27.1855 29.7866 27.3456 28.7516L29.9811 11.7269Z"
          fill="white"/>
    <defs>
        <linearGradient id="paint0_linear_1593_3411" x1="20" y1="0" x2="20" y2="40" gradientUnits="userSpaceOnUse">
            <stop stop-color="#37BBFE"/>
            <stop offset="1" stop-color="#007DBB"/>
        </linearGradient>
    </defs>
</svg>
