<svg width="130" height="130" viewBox="0 0 130 130" fill="none" xmlns="http://www.w3.org/2000/svg">
<g clip-path="url(#clip0_289_75)">
<path d="M65 130C100.899 130 130 100.899 130 65C130 29.1015 100.899 0 65 0C29.1015 0 0 29.1015 0 65C0 100.899 29.1015 130 65 130Z" fill="url(#paint0_linear_289_75)"/>
<path fill-rule="evenodd" clip-rule="evenodd" d="M39.1247 61.5247C55.2308 54.4685 65.9707 49.8167 71.3444 47.5691C86.6876 41.1519 89.8757 40.0372 91.9537 40.0004C92.4108 39.9923 93.4327 40.1062 94.0946 40.6463C94.6536 41.1024 94.8074 41.7184 94.8809 42.1508C94.9545 42.5832 95.0462 43.5682 94.9733 44.3379C94.1419 53.1225 90.5442 74.4405 88.7139 84.2795C87.9395 88.4427 86.4145 89.8386 84.9382 89.9752C81.7298 90.2721 79.2935 87.8431 76.186 85.7948C71.3234 82.5896 68.5764 80.5944 63.8564 77.4667C58.4016 73.8521 61.9377 71.8654 65.0463 68.6187C65.8599 67.769 79.9961 54.8396 80.2697 53.6667C80.304 53.52 80.3357 52.9732 80.0127 52.6845C79.6896 52.3958 79.2128 52.4945 78.8688 52.573C78.3811 52.6843 70.613 57.8473 55.5646 68.0618C53.3597 69.5843 51.3625 70.3261 49.5731 70.2872C47.6004 70.2444 43.8058 69.1657 40.9849 68.2436C37.525 67.1127 34.7751 66.5147 35.0145 64.594C35.1393 63.5936 36.5093 62.5705 39.1247 61.5247Z" fill="white"/>
</g>
<defs>
<linearGradient id="paint0_linear_289_75" x1="6500" y1="0" x2="6500" y2="12903.6" gradientUnits="userSpaceOnUse">
<stop stop-color="#2AABEE"/>
<stop offset="1" stop-color="#229ED9"/>
</linearGradient>
<clipPath id="clip0_289_75">
<rect width="130" height="130" fill="white"/>
</clipPath>
</defs>
</svg>
