<svg width="24" height="25" viewBox="0 0 24 25" fill="none" xmlns="http://www.w3.org/2000/svg">
    <path d="M10 16.5259C10 15.6975 10.6716 15.0259 11.5 15.0259C12.3284 15.0259 13 15.6975 13 16.5259C13 17.3543 12.3284 18.0259 11.5 18.0259C10.6716 18.0259 10 17.3543 10 16.5259ZM10 11.5259C10 10.6975 10.6716 10.0259 11.5 10.0259C12.3284 10.0259 13 10.6975 13 11.5259C13 12.3543 12.3284 13.0259 11.5 13.0259C10.6716 13.0259 10 12.3543 10 11.5259ZM10 6.52588C10 5.69745 10.6716 5.02588 11.5 5.02588C12.3284 5.02588 13 5.69745 13 6.52588C13 7.35431 12.3284 8.02588 11.5 8.02588C10.6716 8.02588 10 7.35431 10 6.52588Z"
          fill="white"/>
</svg>
