<svg width="20" height="20" viewBox="0 0 20 20" fill="none" xmlns="http://www.w3.org/2000/svg">
    <path fill-rule="evenodd" clip-rule="evenodd"
          d="M10 20C15.5228 20 20 15.5229 20 10C20 4.47714 15.5228 0 10 0C4.47717 0 0 4.47714 0 10C0 15.5229 4.47717 20 10 20ZM14.6964 6.27853C14.8502 5.89395 14.6631 5.45749 14.2786 5.30365C13.8939 5.14981 13.4575 5.33688 13.3036 5.72147L9.96448 14.0693C9.89209 14.2504 9.64941 14.2825 9.53235 14.1265L6.09998 9.54999C5.85144 9.21863 5.38135 9.15146 5.05005 9.39999C4.71863 9.64853 4.65149 10.1186 4.90002 10.45L8.3324 15.0265C9.15149 16.1187 10.8502 15.894 11.3572 14.6264L14.6964 6.27853Z"
          fill="#666666"/>
</svg>
