<svg width="34" height="34" viewBox="0 0 34 34" fill="none" xmlns="http://www.w3.org/2000/svg">
<path d="M7.4375 27.625H26.5625C27.4427 27.625 28.1562 28.3385 28.1562 29.2188C28.1562 30.0256 27.5567 30.6924 26.7788 30.798L26.5625 30.8125H7.4375C6.5573 30.8125 5.84375 30.099 5.84375 29.2188C5.84375 28.4119 6.44333 27.7451 7.22124 27.6395L7.4375 27.625ZM16.7837 2.13955L17 2.125C17.8069 2.125 18.4737 2.72458 18.5792 3.50249L18.5938 3.71875V20.0557L23.3861 15.2663C23.9519 14.7005 24.8373 14.649 25.4612 15.112L25.64 15.2663C26.2058 15.8321 26.2572 16.7175 25.7943 17.3414L25.64 17.5202L18.127 25.0332C17.5611 25.599 16.6757 25.6505 16.0518 25.1875L15.873 25.0332L8.36004 17.5202C7.73764 16.8978 7.73764 15.8887 8.36004 15.2663C8.92586 14.7005 9.81127 14.649 10.4352 15.112L10.6139 15.2663L15.4062 20.06V3.71875C15.4062 2.9119 16.0058 2.24508 16.7837 2.13955Z" fill="white"/>
</svg>
