<svg width="131" height="130" viewBox="0 0 131 130" fill="none" xmlns="http://www.w3.org/2000/svg">
<g clip-path="url(#clip0_289_68)">
<path d="M-37 61.4C-37 15.0138 -37 -8.17926 -22.5896 -22.5896C-8.17926 -37 15.0138 -37 61.4 -37H69.6C115.986 -37 139.179 -37 153.59 -22.5896C168 -8.17926 168 15.0138 168 61.4V69.6C168 115.986 168 139.179 153.59 153.59C139.179 168 115.986 168 69.6 168H61.4C15.0138 168 -8.17926 168 -22.5896 153.59C-37 139.179 -37 115.986 -37 69.6V61.4Z" fill="#0077FF"/>
<mask id="mask0_289_68" style="mask-type:luminance" maskUnits="userSpaceOnUse" x="16" y="15" width="100" height="100">
<path d="M116 15H16V115H116V15Z" fill="white"/>
</mask>
<g mask="url(#mask0_289_68)">
<path d="M69.2083 87.043C46.4166 87.043 33.4167 71.418 32.875 45.418H44.2917C44.6667 64.5013 53.0832 72.5846 59.7498 74.2513V45.418H70.5002V61.8762C77.0835 61.1679 83.9993 53.668 86.3327 45.418H97.083C95.2913 55.5847 87.7913 63.0846 82.458 66.1679C87.7913 68.6679 96.3334 75.2096 99.5834 87.043H87.7497C85.208 79.1263 78.8752 73.0013 70.5002 72.1679V87.043H69.2083Z" fill="white"/>
</g>
</g>
<defs>
<clipPath id="clip0_289_68">
<rect width="131" height="130" rx="65" fill="white"/>
</clipPath>
</defs>
</svg>
