<svg xmlns="http://www.w3.org/2000/svg" xmlns:xlink="http://www.w3.org/1999/xlink" width="128px" height="128px" viewBox="0 0 128 128" version="1.1">
<g id="surface1">
<path style=" stroke:none;fill-rule:nonzero;fill:#ffffff;fill-opacity:1;" d="M 126.304688 102.585938 C 125.835938 99.179688 121.96875 96.882812 114.480469 95.558594 C 108.234375 94.453125 99.613281 94.054688 89.542969 94.40625 C 88.351562 94.445312 87.417969 95.445312 87.460938 96.640625 C 87.5 97.832031 88.503906 98.765625 89.695312 98.722656 C 99.464844 98.382812 107.777344 98.761719 113.726562 99.8125 C 120.3125 100.976562 121.949219 102.632812 122.019531 103.175781 C 122.136719 104.027344 119.632812 107.449219 107.007812 111.855469 C 96.09375 115.664062 81.304688 118.96875 65.375 121.152344 C 49.21875 123.371094 33.9375 124.167969 22.347656 123.390625 C 21.15625 123.308594 20.125 124.210938 20.046875 125.402344 C 19.96875 126.589844 20.867188 127.621094 22.058594 127.703125 C 25.042969 127.902344 28.261719 128 31.671875 128 C 41.824219 128 53.65625 127.125 65.960938 125.433594 C 82.167969 123.210938 97.253906 119.835938 108.433594 115.933594 C 121.085938 111.519531 126.929688 107.152344 126.304688 102.585938 Z M 126.304688 102.585938 "/>
<path style=" stroke:none;fill-rule:nonzero;fill:#ffffff;fill-opacity:1;" d="M 104.480469 39.195312 C 103.808594 38.550781 102.800781 38.40625 101.976562 38.839844 C 101.910156 38.875 95.25 42.335938 85.992188 43.554688 C 80.753906 44.242188 75.8125 44.09375 71.183594 43.128906 C 77.808594 40.902344 82.59375 34.640625 82.59375 27.277344 C 82.59375 24.359375 81.839844 21.527344 80.410156 19.011719 C 81.292969 16.3125 82.507812 10.925781 80.136719 6.453125 C 78.375 3.136719 75.09375 1.035156 70.382812 0.214844 C 65.117188 -0.699219 60.164062 1.453125 54.925781 3.730469 C 48.664062 6.457031 42.191406 9.273438 34.648438 6.910156 C 33.90625 6.675781 33.089844 6.863281 32.523438 7.398438 C 31.953125 7.9375 31.71875 8.738281 31.90625 9.496094 C 31.90625 9.496094 31.925781 9.570312 31.960938 9.703125 C 33.539062 15.484375 37.644531 20.078125 43.226562 22.308594 C 45.285156 23.128906 47.417969 23.570312 49.542969 23.648438 C 49.28125 24.828125 49.148438 26.042969 49.148438 27.277344 C 49.148438 28.683594 49.324219 30.050781 49.652344 31.359375 C 35.839844 22.738281 23.421875 28.703125 16.890625 33.410156 C 16.128906 33.960938 15.808594 34.933594 16.097656 35.828125 C 16.386719 36.71875 17.214844 37.324219 18.152344 37.324219 C 22.804688 37.324219 34.277344 38.011719 40.351562 44.378906 C 43.0625 47.222656 44.332031 50.914062 44.121094 55.355469 C 44.066406 56.546875 44.984375 57.558594 46.175781 57.613281 C 47.367188 57.671875 48.382812 56.75 48.4375 55.558594 C 48.703125 49.890625 47.035156 45.125 43.480469 41.398438 C 38.628906 36.316406 31.234375 34.273438 25.320312 33.480469 C 32.492188 30.28125 41.664062 29.695312 51.40625 38 C 61.019531 46.195312 73.171875 49.597656 86.554688 47.835938 C 90.207031 47.355469 93.476562 46.558594 96.167969 45.734375 C 91.335938 50.011719 82.472656 54.765625 67.703125 53.070312 C 66.515625 52.933594 65.445312 53.785156 65.3125 54.96875 C 65.230469 55.683594 65.503906 56.351562 65.996094 56.804688 C 66 56.808594 66.003906 56.816406 66.007812 56.820312 C 66.054688 56.859375 70.195312 60.660156 74.183594 67.722656 C 73.152344 67.496094 72.121094 67.289062 71.089844 67.117188 C 69.910156 66.917969 68.796875 67.710938 68.597656 68.886719 C 68.398438 70.0625 69.191406 71.179688 70.371094 71.375 C 72.5 71.734375 74.632812 72.21875 76.726562 72.796875 C 77.582031 74.753906 78.414062 76.941406 79.140625 79.347656 C 77.152344 80.660156 74.296875 81.148438 72.570312 81.277344 C 69.789062 78.222656 66.515625 75.671875 62.722656 74.25 C 59.902344 73.195312 57.128906 73.464844 54.703125 75.03125 C 51.78125 76.917969 49.296875 80.742188 47.277344 86.4375 C 44.609375 86.144531 42.484375 85.140625 41.347656 84.496094 C 41.695312 80.867188 42.433594 76.921875 43.71875 72.703125 C 46.28125 71.925781 53.855469 69.980469 63.929688 70.628906 C 65.125 70.707031 66.148438 69.800781 66.222656 68.609375 C 66.300781 67.421875 65.398438 66.394531 64.207031 66.316406 C 56.039062 65.792969 49.425781 66.847656 45.433594 67.777344 C 45.507812 67.582031 45.582031 67.386719 45.660156 67.1875 C 46.394531 65.355469 46.988281 63.5625 47.433594 61.855469 C 47.734375 60.703125 47.042969 59.523438 45.886719 59.222656 C 44.734375 58.921875 43.554688 59.613281 43.253906 60.765625 C 42.855469 62.296875 42.3125 63.917969 41.648438 65.582031 C 35.691406 80.472656 36.277344 92.648438 37.8125 100.242188 C 37.878906 100.558594 37.945312 100.863281 38.011719 101.167969 C 27.757812 103.507812 19.066406 106.203125 12.765625 109.003906 C 4.816406 112.542969 1.195312 116.039062 1.699219 119.6875 C 2.210938 123.429688 6.855469 125.851562 15.894531 127.089844 C 15.996094 127.105469 16.09375 127.109375 16.191406 127.109375 C 17.253906 127.109375 18.179688 126.324219 18.328125 125.242188 C 18.492188 124.0625 17.664062 122.972656 16.480469 122.808594 C 8.125 121.664062 6.066406 119.746094 5.976562 119.101562 C 5.894531 118.488281 7.265625 116.183594 14.523438 112.953125 C 20.605469 110.246094 29.082031 107.628906 39.132812 105.347656 C 40.769531 110.5 42.667969 113.390625 42.773438 113.542969 C 43.179688 114.15625 43.859375 114.507812 44.570312 114.507812 C 44.753906 114.507812 44.941406 114.484375 45.128906 114.433594 C 46.023438 114.195312 46.664062 113.414062 46.726562 112.488281 C 46.867188 110.324219 47.1875 107.136719 47.71875 103.558594 C 52.546875 102.640625 57.550781 101.820312 62.625 101.125 C 67.988281 100.386719 73.3125 99.804688 78.476562 99.386719 C 80.238281 103.636719 81.105469 106.820312 81.117188 106.863281 C 81.386719 107.855469 82.3125 108.523438 83.339844 108.460938 C 84.363281 108.398438 85.203125 107.621094 85.34375 106.601562 C 87.789062 89.105469 83.222656 75.667969 78.964844 67.472656 C 76.792969 63.296875 74.5 60.035156 72.648438 57.726562 C 72.980469 57.734375 73.3125 57.742188 73.636719 57.742188 C 84.710938 57.742188 92.152344 54.179688 96.65625 50.898438 C 102.519531 46.621094 104.832031 41.886719 104.929688 41.683594 C 105.332031 40.84375 105.152344 39.839844 104.480469 39.195312 Z M 44.832031 18.292969 C 41.675781 17.035156 39.132812 14.800781 37.519531 11.945312 C 44.78125 12.859375 51.035156 10.136719 56.652344 7.695312 C 61.480469 5.59375 65.648438 3.777344 69.644531 4.472656 C 72.964844 5.050781 75.210938 6.394531 76.3125 8.464844 C 77.722656 11.113281 77.191406 14.527344 76.585938 16.730469 C 68.289062 12.746094 61.726562 14.738281 57.558594 17.269531 C 53.699219 19.609375 49.0625 19.984375 44.832031 18.292969 Z M 53.46875 27.277344 C 53.46875 25.878906 53.699219 24.523438 54.144531 23.234375 C 56.113281 22.800781 58.019531 22.042969 59.800781 20.964844 C 64.949219 17.839844 70.632812 18.082031 76.695312 21.6875 C 76.800781 21.75 76.910156 21.800781 77.023438 21.84375 C 77.84375 23.527344 78.273438 25.378906 78.273438 27.277344 C 78.273438 34.113281 72.707031 39.675781 65.871094 39.675781 C 59.03125 39.675781 53.46875 34.113281 53.46875 27.277344 Z M 44.597656 96.429688 C 44.039062 99.167969 43.609375 101.808594 43.289062 104.121094 C 42.113281 100.425781 41.058594 95.375 41.105469 89.199219 C 42.414062 89.769531 44.066406 90.328125 45.972656 90.625 C 45.480469 92.421875 45.019531 94.355469 44.597656 96.429688 Z M 62.035156 96.84375 C 57.4375 97.476562 52.890625 98.207031 48.480469 99.019531 C 50.074219 90.542969 52.796875 81.40625 57.046875 78.664062 C 58.332031 77.832031 59.65625 77.714844 61.207031 78.296875 C 68.105469 80.882812 73.121094 88.40625 76.117188 94.257812 C 76.28125 94.578125 76.4375 94.894531 76.59375 95.207031 C 71.832031 95.621094 66.949219 96.167969 62.035156 96.84375 Z M 81.699219 95.894531 C 80.203125 92.527344 78.21875 88.71875 75.710938 85.191406 C 77.132812 84.90625 78.753906 84.4375 80.273438 83.671875 C 81.085938 87.347656 81.628906 91.429688 81.699219 95.894531 Z M 81.699219 95.894531 "/>
<path style=" stroke:none;fill-rule:nonzero;fill:#ffffff;fill-opacity:1;" d="M 64.328125 23.171875 C 63.53125 22.6875 62.496094 22.773438 61.789062 23.378906 C 60.292969 24.660156 61.246094 27.175781 63.199219 27.175781 C 64.179688 27.175781 65.050781 26.488281 65.289062 25.542969 C 65.523438 24.640625 65.125 23.65625 64.328125 23.171875 Z M 64.328125 23.171875 "/>
<path style=" stroke:none;fill-rule:nonzero;fill:#ffffff;fill-opacity:1;" d="M 75.933594 22.671875 C 75.128906 22.246094 74.121094 22.375 73.449219 22.992188 C 72.035156 24.292969 72.996094 26.738281 74.914062 26.738281 C 75.953125 26.738281 76.867188 25.96875 77.042969 24.945312 C 77.199219 24.039062 76.75 23.101562 75.933594 22.671875 Z M 75.933594 22.671875 "/>
<path style=" stroke:none;fill-rule:nonzero;fill:#ffffff;fill-opacity:1;" d="M 72.613281 29.601562 L 66.121094 29.933594 C 65.363281 29.972656 64.855469 30.746094 65.136719 31.453125 C 65.835938 33.214844 67.601562 34.417969 69.601562 34.316406 C 71.609375 34.210938 73.242188 32.828125 73.753906 30.992188 C 73.957031 30.269531 73.367188 29.5625 72.613281 29.601562 Z M 72.613281 29.601562 "/>
</g>
</svg>